<svg fill="none" height="100%" viewBox="0 0 1149 1407" width="100%" xmlns="http://www.w3.org/2000/svg" class="h-full py-1"><path clip-rule="evenodd" d="M1147.14 242.358C1146.4 26.1707 884.589 -81.2438 732.199 72.0995L488.299 317.549C473.973 331.994 474.097 355.206 488.423 369.527C535.35 416.197 611.302 415.95 657.853 369.034L843.228 182.601C897.314 128.152 990.183 166.303 990.427 242.975L992.282 801.283C992.527 877.956 899.904 916.729 845.445 862.644L413.832 433.483C260.452 281.126 -0.740251 390.146 0.00157676 606.332L1.85379 1164.65C2.59445 1380.83 264.404 1488.24 416.795 1334.9L665.516 1084.64C676.994 1073.04 676.877 1054.39 665.388 1042.9C615.618 993.401 535.104 993.646 485.582 1043.52L305.651 1224.64C251.56 1279.1 158.692 1240.94 158.445 1164.27L156.592 605.959C156.345 529.291 248.966 490.523 303.428 544.601L735.162 973.647C888.543 1126 1149.62 1016.85 1149 800.665L1147.14 242.358Z" fill="oklch(0.541 0.247 293.009)" fill-rule="evenodd"></path></svg>